<svg width="31.929" height="20.434" xmlns="http://www.w3.org/2000/svg"><path d="M10.141 12.24V8.194h9.74c.622 4.492-1.05 11.047-7.797 12.096a12.63 12.63 0 0 1-1.943.144C4.52 20.413-.02 15.84 0 10.217-.02 4.595 4.52.021 10.141 0c2.628 0 5.022 1.007 6.823 2.659-.172.163-.343.328-.514.493-1.602 1.553-1.611 1.721-2.372 2.487a5.995 5.995 0 0 0-2.487-1.33 6.074 6.074 0 0 0-1.45-.162 5.952 5.952 0 0 0-5.916 5.758 6.45 6.45 0 0 0-.008.312 6.105 6.105 0 0 0 2.3 4.82 5.82 5.82 0 0 0 3.624 1.25c3.288 0 4.623-1.428 5.483-4.053h-.498c-1.78.001-4.985.006-4.985.006zm15.763 2.327v-3.642H22.29V8.396h3.614v-3.54h2.51v3.54h3.515v2.53h-3.514v3.64h-2.51z" fill="#fff" fill-rule="evenodd"/></svg>