<svg width="24.265" height="24.265" xmlns="http://www.w3.org/2000/svg"><path d="M21.381 24.265H2.884A2.884 2.884 0 0 1 0 21.387V2.878A2.884 2.884 0 0 1 2.884 0H21.38c1.59 0 2.881 1.288 2.884 2.878v18.51a2.884 2.884 0 0 1-2.884 2.877zM2.275 9.857v11.375c0 .418.34.759.758.759h18.2a.76.76 0 0 0 .758-.759V9.857h-3.034c.47.562.572 1.535.585 2.153l.002.15a7.382 7.382 0 0 1-7.383 7.365 7.381 7.381 0 0 1-7.382-7.364c0-.16.007-.32.02-.479.05-.624.194-1.303.45-1.734l.059-.09H2.275zm9.886-2.351a4.666 4.666 0 0 0-4.666 4.655 4.666 4.666 0 0 0 9.332 0c0-2.567-2.093-4.655-4.666-4.655zm5.28-3.715v2.276c0 .418.34.757.758.757h2.274a.759.759 0 0 0 .76-.757V3.79a.759.759 0 0 0-.76-.758H18.2a.758.758 0 0 0-.758.758z" fill="#fff" fill-rule="evenodd"/></svg>