<svg width="26.82" height="22.989" xmlns="http://www.w3.org/2000/svg"><path d="M1.076 8.087v.07a5.965 5.965 0 0 0 1.415 3.886 5.432 5.432 0 0 0 3.001 1.805 5.218 5.218 0 0 1-2.486.102c.701 2.304 2.732 3.983 5.14 4.028A10.68 10.68 0 0 1 0 20.383a15.015 15.015 0 0 0 8.435 2.605c2.43.024 4.83-.54 6.997-1.642 5.646-2.912 8.658-9.21 8.658-14.869 0-.25-.004-.501-.014-.752a11.484 11.484 0 0 0 2.744-3.004 10.55 10.55 0 0 1-3.16.914 5.771 5.771 0 0 0 2.42-3.21 10.643 10.643 0 0 1-3.497 1.406A5.361 5.361 0 0 0 18.568 0a5.609 5.609 0 0 0-5.447 4.992 6.167 6.167 0 0 0 .088 2.133c-4.573-.243-8.627-2.55-11.342-6.066a6.04 6.04 0 0 0-.745 2.921 6.008 6.008 0 0 0 .93 3.23c.397.628.913 1.171 1.518 1.6a5.289 5.289 0 0 1-2.494-.723z" fill="#fff" fill-rule="evenodd"/></svg>